<svg xmlns="http://www.w3.org/2000/svg" viewBox="0 0 640 380"><rect width="640" height="380" fill="#eef1ec"/><g fill="none" stroke="#c9d1c7"><path d="M60 80H580M60 140H580M60 200H580M60 260H580M60 320H580M100 60V330M180 60V330M260 60V330M340 60V330M420 60V330M500 60V330"/></g><g fill="#d4ddd0"><rect x="220" y="105" width="100" height="80"/><rect x="370" y="220" width="90" height="70"/></g><path d="M100 260L180 260L180 200L340 200L340 100L520 100" fill="none" stroke="#a04932" stroke-width="4" stroke-linejoin="round" stroke-dasharray="9 5"/><g fill="#20302e"><circle cx="100" cy="260" r="8"/><circle cx="520" cy="100" r="8"/></g><g fill="#20302e" font-family="Arial,sans-serif" font-size="18"><text x="78" y="298">START</text><text x="493" y="75">GOAL</text></g><rect x="60" y="340" width="520" height="25" fill="#eef1ec"/><text x="320" y="360" text-anchor="middle" font-family="monospace" font-size="14" fill="#536450">PPO POLICY → SIMULATION → REAL-WORLD NAVIGATION</text></svg>
